<?xml version="1.0" standalone="no"?><!DOCTYPE svg PUBLIC "-//W3C//DTD SVG 1.1//EN"
        "http://www.w3.org/Graphics/SVG/1.1/DTD/svg11.dtd">
<svg t="1584181371030" class="right" viewBox="0 0 1024 1024" version="1.1" xmlns="http://www.w3.org/2000/svg" p-id="726"
     xmlns:xlink="http://www.w3.org/1999/xlink" width="200" height="200">
    <defs>
        <style type="text/css"></style>
    </defs>
    <path d="M314.74596199 66.804499c15.286148 0 29.522384 5.878894 40.16681501 16.564257L744.61029 473.759047c1.425466 1.39272 2.537799 2.577708 3.449565 3.846608l2.304486 2.905166c11.362792 11.416004 16.945951 24.848944 16.945951 39.068807 0 14.47568899-5.708002 28.010961-16.056698 38.11099301l-392.376529 388.21678899c-10.612709 10.46739899-24.785499 16.236799-39.892569 16.236799-14.77244801 0-28.726252-5.599532-39.287795-15.753799-10.497075-10.18599-16.538675-24.390503-16.538675-38.95215 0-14.382569 5.722328-28.009937 16.142655-38.366819L633.26741299 518.901177 274.782785 159.473061c-10.249435-10.30981-15.909341-23.781636-15.90934101-37.994336 0-14.889105 6.05081-28.859281 16.99916301-39.333844C286.29191 72.255651 300.121893 66.80449899 314.74596199 66.804499z"
          p-id="727"></path>
</svg>