<?xml version="1.0" standalone="no"?><!DOCTYPE svg PUBLIC "-//W3C//DTD SVG 1.1//EN"
        "http://www.w3.org/Graphics/SVG/1.1/DTD/svg11.dtd">
<svg t="1583898305102" class="statistics" viewBox="0 0 1092 1024" version="1.1" xmlns="http://www.w3.org/2000/svg" p-id="3602"
     xmlns:xlink="http://www.w3.org/1999/xlink" width="213.28125" height="200">
    <defs>
        <style type="text/css"></style>
    </defs>
    <path d="M86.984021 930.474667V45.397333A44.373333 44.373333 0 0 0 43.498155 0 44.373333 44.373333 0 0 0 0.012288 45.397333v930.474667a44.373333 44.373333 0 0 0 43.485867 45.397333h1000.106666a44.373333 44.373333 0 0 0 43.485867-45.397333 44.373333 44.373333 0 0 0-43.485867-45.397333H86.984021z"
          p-id="3603"></path>
    <path d="M502.932821 259.003733l-245.9648 256.682667a46.8992 46.8992 0 0 0 0 64.3072 42.325333 42.325333 0 0 0 61.576534 0l215.176533-224.6656 215.2448 224.6656a42.325333 42.325333 0 0 0 61.576533 0l245.9648-256.682667a46.8992 46.8992 0 0 0 0-64.3072 42.325333 42.325333 0 0 0-61.576533 0l-215.381333 224.6656-215.2448-224.6656a42.120533 42.120533 0 0 0-61.44 0z"
          p-id="3604"></path>
</svg>